<svg width="71" height="74" viewBox="0 0 71 74" fill="none" xmlns="http://www.w3.org/2000/svg">
<path d="M35.5 27.824C33.7587 27.824 32.0566 28.3622 30.6088 29.3704C29.1609 30.3787 28.0325 31.8118 27.3662 33.4885C26.6998 35.1652 26.5255 37.0102 26.8652 38.7901C27.2049 40.5701 28.0434 42.2051 29.2746 43.4884C30.5059 44.7717 32.0746 45.6456 33.7824 45.9997C35.4902 46.3537 37.2604 46.172 38.8691 45.4775C40.4779 44.783 41.8529 43.6069 42.8203 42.0979C43.7877 40.5889 44.304 38.8148 44.304 37C44.304 35.795 44.0763 34.6018 43.6338 33.4885C43.1914 32.3752 42.5429 31.3637 41.7254 30.5116C40.9078 29.6595 39.9373 28.9836 38.8691 28.5225C37.801 28.0613 36.6562 27.824 35.5 27.824ZM70.7515 18.759C70.7328 15.9017 70.228 13.0705 69.2605 10.397C68.548 8.44066 67.4455 6.66405 66.0258 5.18439C64.6061 3.70472 62.9015 2.55566 61.0245 1.813C58.4594 0.804616 55.743 0.278465 53.0015 0.259C48.422 -2.48104e-07 47.073 0 35.5 0C23.927 0 22.578 -2.48104e-07 17.9985 0.259C15.257 0.278465 12.5406 0.804616 9.9755 1.813C8.09847 2.55566 6.39388 3.70472 4.97421 5.18439C3.55453 6.66405 2.45205 8.44066 1.7395 10.397C0.771996 13.0705 0.267176 15.9017 0.2485 18.759C-2.38046e-07 23.532 0 24.938 0 37C0 49.062 -2.38046e-07 50.468 0.2485 55.241C0.286712 58.1084 0.790849 60.9482 1.7395 63.64C2.44889 65.5874 3.55046 67.3537 4.97 68.82C6.38359 70.3085 8.09183 71.4576 9.9755 72.187C12.5406 73.1954 15.257 73.7215 17.9985 73.741C22.578 74 23.927 74 35.5 74C47.073 74 48.422 74 53.0015 73.741C55.743 73.7215 58.4594 73.1954 61.0245 72.187C62.9082 71.4576 64.6164 70.3085 66.03 68.82C67.4495 67.3537 68.5511 65.5874 69.2605 63.64C70.2271 60.9534 70.7318 58.1102 70.7515 55.241C71 50.468 71 49.062 71 37C71 24.938 71 23.532 70.7515 18.759ZM61.7345 48.359C61.6206 50.6423 61.153 52.8913 60.35 55.019C59.6608 56.7938 58.6363 58.4061 57.3373 59.76C56.0383 61.1139 54.4914 62.1817 52.7885 62.9C50.7278 63.6903 48.5579 64.1276 46.363 64.195C43.5585 64.195 42.813 64.195 35.5 64.195C28.187 64.195 27.4415 64.195 24.637 64.195C22.4421 64.1276 20.2722 63.6903 18.2115 62.9C16.4511 62.2182 14.8613 61.1304 13.561 59.718C12.2747 58.3906 11.2813 56.7871 10.65 55.019C9.88873 52.8734 9.48065 50.6092 9.443 48.322C9.443 45.399 9.443 44.622 9.443 37C9.443 29.378 9.443 28.601 9.443 25.678C9.48065 23.3908 9.88873 21.1266 10.65 18.981C11.3042 17.1462 12.3479 15.4892 13.703 14.134C14.9822 12.8006 16.5191 11.7663 18.2115 11.1C20.2722 10.3097 22.4421 9.87238 24.637 9.805C27.4415 9.805 28.187 9.805 35.5 9.805C42.813 9.805 43.5585 9.805 46.363 9.805C48.5579 9.87238 50.7278 10.3097 52.7885 11.1C54.5489 11.7818 56.1387 12.8696 57.439 14.282C58.7253 15.6094 59.7187 17.2129 60.35 18.981C61.1083 21.1288 61.5279 23.3904 61.5925 25.678C61.5925 28.601 61.5925 29.378 61.5925 37C61.5925 44.622 61.841 45.399 61.7345 48.322V48.359ZM56.0545 20.831C55.6318 19.6358 54.9654 18.5505 54.1012 17.6498C53.2371 16.7491 52.1957 16.0545 51.049 15.614C49.4745 15.0452 47.8162 14.7696 46.15 14.8C43.381 14.8 42.6 14.8 35.5 14.8C28.4 14.8 27.619 14.8 24.85 14.8C23.1753 14.8171 21.5168 15.1427 19.951 15.762C18.8218 16.1825 17.7915 16.8487 16.9285 17.7163C16.0654 18.584 15.3895 19.6331 14.9455 20.794C14.43 22.4419 14.1781 24.1669 14.2 25.9C14.2 28.786 14.2 29.6 14.2 37C14.2 44.4 14.2 45.214 14.2 48.1C14.2352 49.8434 14.5471 51.5688 15.123 53.206C15.5457 54.4012 16.2121 55.4865 17.0763 56.3872C17.9404 57.2879 18.9818 57.9825 20.1285 58.423C21.6432 59.0036 23.2371 59.3283 24.85 59.385C27.619 59.385 28.4 59.385 35.5 59.385C42.6 59.385 43.381 59.385 46.15 59.385C47.8247 59.3679 49.4832 59.0423 51.049 58.423C52.1957 57.9825 53.2371 57.2879 54.1012 56.3872C54.9654 55.4865 55.6318 54.4012 56.0545 53.206C56.6487 51.574 56.9611 49.8454 56.9775 48.1C56.9775 45.214 56.9775 44.4 56.9775 37C56.9775 29.6 56.9775 28.786 56.9775 25.9C56.9785 24.1529 56.6655 22.421 56.0545 20.794V20.831ZM35.5 51.134C33.7208 51.134 31.9591 50.7682 30.3158 50.0574C28.6725 49.3466 27.1799 48.305 25.9235 46.992C24.667 45.6791 23.6715 44.1207 22.9939 42.4061C22.3162 40.6915 21.9698 38.8544 21.9745 37C21.9745 34.203 22.7708 31.4689 24.2624 29.1437C25.7541 26.8186 27.8741 25.0071 30.3542 23.9384C32.8342 22.8697 35.5627 22.592 38.1942 23.1403C40.8257 23.6887 43.242 25.0385 45.1371 27.0189C47.0323 28.9993 48.321 31.5212 48.8402 34.2653C49.3595 37.0095 49.0859 39.8525 48.054 42.4345C47.0222 45.0165 45.2785 47.2214 43.0437 48.77C40.809 50.3186 38.1836 51.1413 35.5 51.134ZM49.7 25.641C48.9152 25.5544 48.189 25.1682 47.6612 24.5568C47.1334 23.9454 46.8413 23.152 46.8413 22.3295C46.8413 21.507 47.1334 20.7136 47.6612 20.1022C48.189 19.4908 48.9152 19.1046 49.7 19.018C50.4848 19.1046 51.211 19.4908 51.7388 20.1022C52.2666 20.7136 52.5587 21.507 52.5587 22.3295C52.5587 23.152 52.2666 23.9454 51.7388 24.5568C51.211 25.1682 50.4848 25.5544 49.7 25.641Z" fill="black"/>
</svg>
