<svg width="88" height="74" viewBox="0 0 88 74" fill="none" xmlns="http://www.w3.org/2000/svg">
<path d="M78.5714 0H9.42857C4.22321 0 0 3.55134 0 7.92857V66.0714C0 70.4487 4.22321 74 9.42857 74H78.5714C83.7768 74 88 70.4487 88 66.0714V7.92857C88 3.55134 83.7768 0 78.5714 0ZM68.9661 26.2304C69.0054 26.6929 69.0054 27.1719 69.0054 27.6344C69.0054 41.9554 56.0411 58.4567 32.3518 58.4567C25.0446 58.4567 18.2679 56.6728 12.5714 53.6004C13.6125 53.6996 14.6143 53.7326 15.675 53.7326C21.7054 53.7326 27.2446 52.0147 31.6643 49.1076C26.0071 49.0085 21.2536 45.8866 19.6232 41.592C21.6071 41.8397 23.3946 41.8397 25.4375 41.3937C19.5446 40.3862 15.125 36.0254 15.125 30.7563V30.6241C16.8339 31.4335 18.8375 31.929 20.9393 31.9951C19.1723 31.0067 17.7237 29.6659 16.7229 28.0922C15.7221 26.5185 15.2001 24.7609 15.2036 22.9763C15.2036 20.9612 15.8321 19.1112 16.9518 17.5089C23.2964 24.083 32.8232 28.3777 43.5089 28.8402C41.6821 21.4897 48.2232 15.5268 56.0804 15.5268C59.7929 15.5268 63.1321 16.8317 65.4893 18.946C68.3964 18.4835 71.1857 17.575 73.6607 16.3362C72.6982 18.8469 70.675 20.9612 68.0036 22.2991C70.5964 22.0679 73.1107 21.4567 75.4286 20.6143C73.6804 22.7781 71.4804 24.6942 68.9661 26.2304Z" fill="black"/>
</svg>
