<svg width="71" height="74" viewBox="0 0 71 74" fill="none" xmlns="http://www.w3.org/2000/svg">
<path d="M60.6556 10.7538C53.9813 3.82285 45.1052 0.00389567 35.6482 0C16.1629 0 0.304213 16.4485 0.296415 36.6664C0.293912 43.1291 1.92174 49.4376 5.01529 54.9982L0 74L18.7404 68.901C23.904 71.8221 29.7173 73.3616 35.6341 73.3642H35.6486C55.132 73.3642 70.9921 56.9137 71 36.6956C71.0038 26.8978 67.3301 17.6848 60.6556 10.7538ZM35.6486 67.1712H35.6366C30.3642 67.1691 25.1929 65.6999 20.6816 62.923L19.6086 62.2626L8.48775 65.2885L11.4561 54.0418L10.7573 52.8887C7.81608 48.0362 6.26266 42.4274 6.26497 36.6688C6.27133 19.8646 19.4525 6.19311 35.66 6.19311C43.508 6.19621 50.8855 9.37068 56.4331 15.1314C61.9806 20.8921 65.034 28.5496 65.0311 36.6933C65.0248 53.4989 51.8437 67.1712 35.6486 67.1712ZM51.7657 44.3451C50.8822 43.8865 46.5396 41.6699 45.7299 41.3641C44.9202 41.0582 44.3314 40.9054 43.7424 41.8228C43.1537 42.74 41.4609 44.8038 40.9454 45.4152C40.4302 46.0267 39.9149 46.1032 39.0317 45.6445C38.1483 45.1859 35.3022 44.2184 31.9283 41.097C29.3025 38.6678 27.5296 35.6671 27.0144 34.7497C26.4991 33.8325 26.9596 33.3367 27.4018 32.8798C27.7991 32.4694 28.285 31.8097 28.7267 31.2747C29.1683 30.7398 29.3156 30.3574 29.61 29.746C29.9045 29.1345 29.7572 28.5994 29.5364 28.1408C29.3156 27.6822 27.549 23.1724 26.8129 21.338C26.0959 19.5514 25.3676 19.7931 24.8254 19.765C24.3107 19.7384 23.7212 19.7329 23.1325 19.7329C22.5437 19.7329 21.5867 19.9621 20.777 20.8794C19.9674 21.7967 17.6855 24.0133 17.6855 28.523C17.6855 33.0327 20.8506 37.3895 21.2923 38.0009C21.7339 38.6125 27.5208 47.8671 36.3817 51.8357C38.4893 52.7797 40.1345 53.3435 41.4174 53.7658C43.5334 54.4629 45.459 54.3646 46.9812 54.1288C48.6782 53.8658 52.2071 51.9124 52.9434 49.7721C53.6795 47.6318 53.6795 45.7975 53.4586 45.4153C53.2378 45.0331 52.649 44.8038 51.7657 44.3451Z" fill="#58C836"/>
</svg>
